<?xml version="1.0" encoding="UTF-8" standalone="no"?><svg xmlns="http://www.w3.org/2000/svg" xmlns:xlink="http://www.w3.org/1999/xlink" contentStyleType="text/css" height="272px" preserveAspectRatio="none" style="width:249px;height:272px;background:#FFFFFF;" version="1.1" viewBox="0 0 249 272" width="249px" zoomAndPan="magnify"><defs/><g><rect fill="none" height="27.6094" id="_title" style="stroke:none;stroke-width:1.0;" width="227" x="9.75" y="10"/><text fill="#000000" font-family="sans-serif" font-size="14" font-weight="bold" lengthAdjust="spacing" text-decoration="underline" textLength="217" x="14.75" y="29.5332">Example of a plantuml diagram!</text><rect fill="#ADD8E6" height="94.8906" style="stroke:#000000;stroke-width:1.5;" width="227.5" x="10" y="123.5703"/><rect fill="#FFC0CB" height="46.1875" style="stroke:none;stroke-width:1.0;" width="227.5" x="10" y="172.2734"/><line style="stroke:#181818;stroke-width:0.5;stroke-dasharray:5.0,5.0;" x1="42" x2="42" y1="76.2188" y2="235.4609"/><line style="stroke:#181818;stroke-width:0.5;stroke-dasharray:5.0,5.0;" x1="207.5" x2="207.5" y1="76.2188" y2="235.4609"/><rect fill="#E2E2F0" height="31.6094" rx="2.5" ry="2.5" style="stroke:#181818;stroke-width:0.5;" width="44" x="20" y="43.6094"/><text fill="#000000" font-family="sans-serif" font-size="14" lengthAdjust="spacing" textLength="30" x="27" y="65.1426">Alice</text><rect fill="#E2E2F0" height="31.6094" rx="2.5" ry="2.5" style="stroke:#181818;stroke-width:0.5;" width="44" x="20" y="234.4609"/><text fill="#000000" font-family="sans-serif" font-size="14" lengthAdjust="spacing" textLength="30" x="27" y="255.9941">Alice</text><rect fill="#E2E2F0" height="31.6094" rx="2.5" ry="2.5" style="stroke:#181818;stroke-width:0.5;" width="39" x="188.5" y="43.6094"/><text fill="#000000" font-family="sans-serif" font-size="14" lengthAdjust="spacing" textLength="25" x="195.5" y="65.1426">Bob</text><rect fill="#E2E2F0" height="31.6094" rx="2.5" ry="2.5" style="stroke:#181818;stroke-width:0.5;" width="39" x="188.5" y="234.4609"/><text fill="#000000" font-family="sans-serif" font-size="14" lengthAdjust="spacing" textLength="25" x="195.5" y="255.9941">Bob</text><polygon fill="#181818" points="196,104.5703,206,108.5703,196,112.5703,200,108.5703" style="stroke:#181818;stroke-width:1.0;"/><line style="stroke:#181818;stroke-width:1.0;" x1="42" x2="202" y1="108.5703" y2="108.5703"/><text fill="#000000" font-family="sans-serif" font-size="13" lengthAdjust="spacing" textLength="135" x="49" y="103.7139">Authentication Request</text><path d="M10,123.5703 L71,123.5703 L71,131.9219 L61,141.9219 L10,141.9219 L10,123.5703 " fill="#FFD700" style="stroke:#000000;stroke-width:1.5;"/><rect fill="none" height="94.8906" style="stroke:#000000;stroke-width:1.5;" width="227.5" x="10" y="123.5703"/><text fill="#000000" font-family="sans-serif" font-size="13" font-weight="bold" lengthAdjust="spacing" textLength="16" x="25" y="138.0654">alt</text><text fill="#000000" font-family="sans-serif" font-size="11" font-weight="bold" lengthAdjust="spacing" textLength="98" x="86" y="136.9893">[Successful case]</text><polygon fill="#181818" points="53,160.2734,43,164.2734,53,168.2734,49,164.2734" style="stroke:#181818;stroke-width:1.0;"/><line style="stroke:#181818;stroke-width:1.0;" x1="47" x2="207" y1="164.2734" y2="164.2734"/><text fill="#000000" font-family="sans-serif" font-size="13" lengthAdjust="spacing" textLength="142" x="59" y="159.417">Authentication Accepted</text><line style="stroke:#000000;stroke-width:1.0;stroke-dasharray:2.0,2.0;" x1="10" x2="237.5" y1="173.2734" y2="173.2734"/><text fill="#000000" font-family="sans-serif" font-size="11" font-weight="bold" lengthAdjust="spacing" textLength="45" x="15" y="184.6924">[Failure]</text><polygon fill="#181818" points="53,206.4609,43,210.4609,53,214.4609,49,210.4609" style="stroke:#181818;stroke-width:1.0;"/><line style="stroke:#181818;stroke-width:1.0;" x1="47" x2="207" y1="210.4609" y2="210.4609"/><text fill="#000000" font-family="sans-serif" font-size="13" lengthAdjust="spacing" textLength="138" x="59" y="205.6045">Authentication Rejected</text><!--MD5=[54b4b545d15376a4f42191a2b2b81b64]
@startuml
title <u>Example of a plantuml diagram!</u>
Alice -> Bob: Authentication Request
alt#Gold #LightBlue Successful case
    Bob -> Alice: Authentication Accepted
else #Pink Failure
    Bob -> Alice: Authentication Rejected
end
@enduml

PlantUML version 1.2022.7(Mon Aug 22 19:01:30 CEST 2022)
(GPL source distribution)
Java Runtime: Java(TM) SE Runtime Environment
JVM: Java HotSpot(TM) 64-Bit Server VM
Default Encoding: Cp1252
Language: en
Country: US
--></g></svg>